# Blender 3.4.1
# www.blender.org
mtllib deco1.mtl
o Cube
v -5.358576 1.000000 2.581050
v -5.360847 0.985104 2.581050
v -5.080526 0.950000 2.631050
v -5.377448 0.997014 2.581050
v -5.270399 0.992680 2.605443
v -5.328374 0.990420 2.604341
v -5.274493 0.965823 2.605443
v -5.377972 0.993577 2.581050
v -5.329162 0.985252 2.604341
v -5.168703 0.974393 2.623731
v -5.171966 0.952984 2.623731
v -5.257399 0.976958 2.618189
v -5.358576 1.000000 -0.950000
v -5.080526 0.950000 -1.000000
v -5.360847 0.985105 -0.950000
v -5.270399 0.992680 -0.974393
v -5.377447 0.997014 -0.950000
v -5.328374 0.990420 -0.973290
v -5.171967 0.952984 -0.992680
v -5.168703 0.974393 -0.992680
v -5.257401 0.976958 -0.987139
v -5.377971 0.993577 -0.950000
v -5.274492 0.965823 -0.974393
v -5.329163 0.985252 -0.973291
v 0.950000 -0.932018 2.631050
v 0.952270 -0.985104 2.581050
v 1.000000 -0.950000 2.581050
v 0.950718 -0.957962 2.624371
v 0.974552 -0.940433 2.624371
v 0.974210 -0.964934 2.617882
v 0.976519 -0.986427 2.581050
v 0.951552 -0.977448 2.606018
v 0.974796 -0.978653 2.604961
v 0.992905 -0.947033 2.606018
v 0.994039 -0.973542 2.581050
v 0.987131 -0.969581 2.604961
v 0.950000 1.000000 2.581050
v 0.950000 0.950000 2.631050
v 1.000000 0.950000 2.581050
v 0.950000 0.993320 2.606018
v 0.974967 0.993320 2.581050
v 0.973911 0.986832 2.604961
v 0.974967 0.950000 2.624371
v 0.950000 0.974967 2.624371
v 0.973911 0.973911 2.617882
v 0.993320 0.974967 2.581050
v 0.993320 0.950000 2.606018
v 0.986832 0.973911 2.604961
v 0.952270 -0.985104 -0.950000
v 0.950000 -0.932018 -1.000000
v 1.000000 -0.950000 -0.950000
v 0.951552 -0.977448 -0.974967
v 0.976519 -0.986427 -0.950000
v 0.974796 -0.978653 -0.973911
v 0.974552 -0.940433 -0.993320
v 0.950718 -0.957962 -0.993320
v 0.974210 -0.964934 -0.986832
v 0.994039 -0.973542 -0.950000
v 0.992905 -0.947033 -0.974967
v 0.987131 -0.969581 -0.973911
v 0.950000 1.000000 -0.950000
v 1.000000 0.950000 -0.950000
v 0.950000 0.950000 -1.000000
v 0.974967 0.993320 -0.950000
v 0.950000 0.993320 -0.974967
v 0.973911 0.986832 -0.973911
v 0.993320 0.950000 -0.974967
v 0.993320 0.974967 -0.950000
v 0.986832 0.973911 -0.973911
v 0.950000 0.974967 -0.993320
v 0.974967 0.950000 -0.993320
v 0.973911 0.973911 -0.986832
vn -0.0000 -0.0000 1.0000
vn -0.0000 -0.0000 -1.0000
vn 1.0000 -0.0000 -0.0000
vn -0.2979 -0.9546 -0.0000
vn -0.0672 0.8891 0.4528
vn -0.4208 0.0642 0.9049
vn -0.3290 -0.8287 0.4529
vn -0.2153 -0.5739 0.7901
vn -0.0709 0.0108 0.9974
vn -0.0345 0.6120 0.7901
vn -0.1862 0.0283 0.9821
vn -0.0672 0.8891 -0.4528
vn -0.0345 0.6120 -0.7901
vn -0.0709 0.0108 -0.9974
vn -0.2153 -0.5739 -0.7901
vn -0.3290 -0.8287 -0.4528
vn -0.4208 0.0642 -0.9049
vn -0.1862 0.0285 -0.9821
vn 0.1817 -0.2471 0.9518
vn -0.0025 -0.6857 0.7279
vn -0.0441 -0.9533 0.2988
vn 0.5668 -0.7706 0.2914
vn 0.9232 -0.2419 0.2988
vn 0.6553 -0.2019 0.7279
vn 0.4443 -0.6041 0.6616
vn 0.2566 0.9318 0.2566
vn 0.2178 0.6901 0.6901
vn 0.2566 0.2566 0.9318
vn 0.6901 0.2178 0.6901
vn 0.9318 0.2566 0.2566
vn 0.6901 0.6901 0.2178
vn 0.5773 0.5774 0.5773
vn -0.0441 -0.9533 -0.2988
vn -0.0025 -0.6857 -0.7279
vn 0.1817 -0.2471 -0.9518
vn 0.6553 -0.2019 -0.7279
vn 0.9232 -0.2419 -0.2988
vn 0.5668 -0.7706 -0.2914
vn 0.4443 -0.6041 -0.6616
vn 0.2566 0.9318 -0.2566
vn 0.6901 0.6901 -0.2178
vn 0.9318 0.2566 -0.2566
vn 0.6901 0.2178 -0.6901
vn 0.2566 0.2566 -0.9318
vn 0.2178 0.6901 -0.6901
vn 0.5774 0.5774 -0.5774
vn -0.1563 0.9877 -0.0000
vn -0.9886 0.1508 -0.0000
vn -0.4435 -0.8963 -0.0000
vn -0.0820 -0.2624 -0.9615
vn -0.2107 -0.6749 -0.7072
vn -0.2860 -0.9163 -0.2804
vn -0.0820 -0.2624 0.9615
vn -0.2107 -0.6749 0.7072
vn -0.2860 -0.9163 0.2804
vn -0.0001 0.9620 -0.2730
vn -0.0001 0.7069 -0.7073
vn -0.0001 0.2727 -0.9621
vn 0.9640 -0.0001 -0.2659
vn 0.7071 -0.0002 -0.7071
vn 0.2605 -0.0000 -0.9655
vn -0.0545 -0.9985 -0.0000
vn 0.5925 -0.8056 -0.0000
vn 0.9694 -0.2455 -0.0000
vn 0.2585 0.9660 -0.0000
vn 0.7071 0.7071 -0.0000
vn 0.9660 0.2585 -0.0000
vn 0.2605 -0.0000 0.9655
vn 0.7071 -0.0002 0.7071
vn 0.9640 -0.0001 0.2659
vn -0.0001 0.9620 0.2730
vn -0.0001 0.7069 0.7073
vn -0.0001 0.2727 0.9621
vn -0.0000 1.0000 -0.0000
vt 0.873049 0.746558
vt 0.871276 0.746557
vt 0.855953 0.750000
vt 0.873786 0.746557
vt 0.869610 0.748237
vt 0.871871 0.748161
vt 0.864709 0.748237
vt 0.872682 0.746557
vt 0.869027 0.748161
vt 0.862442 0.750000
vt 0.859893 0.750000
vt 0.866222 0.750000
vt 0.873049 0.503443
vt 0.855953 0.500000
vt 0.871276 0.503443
vt 0.869610 0.501763
vt 0.873786 0.503443
vt 0.871871 0.501839
vt 0.859893 0.500000
vt 0.862442 0.500000
vt 0.866222 0.500000
vt 0.872682 0.503443
vt 0.864709 0.501763
vt 0.869027 0.501839
vt 0.385448 0.750000
vt 0.378724 0.746557
vt 0.381250 0.746557
vt 0.382177 0.750000
vt 0.383439 0.750000
vt 0.380389 0.750000
vt 0.376971 0.746557
vt 0.378945 0.748277
vt 0.377266 0.748204
vt 0.381621 0.748276
vt 0.378307 0.746557
vt 0.378802 0.748204
vt 0.626951 0.746558
vt 0.620701 0.750000
vt 0.618750 0.746557
vt 0.626951 0.748276
vt 0.625977 0.746557
vt 0.626018 0.748204
vt 0.619727 0.750000
vt 0.623821 0.750000
vt 0.622757 0.750000
vt 0.621871 0.746557
vt 0.618750 0.748276
vt 0.621739 0.748204
vt 0.378724 0.503442
vt 0.385448 0.500000
vt 0.381250 0.503443
vt 0.378945 0.501724
vt 0.376971 0.503443
vt 0.377266 0.501796
vt 0.383439 0.500000
vt 0.382177 0.500000
vt 0.380389 0.500000
vt 0.378307 0.503443
vt 0.381621 0.501724
vt 0.378802 0.501796
vt 0.626951 0.503443
vt 0.618750 0.503443
vt 0.620701 0.500000
vt 0.625977 0.503443
vt 0.626950 0.501724
vt 0.626018 0.501796
vt 0.618750 0.501724
vt 0.621871 0.503443
vt 0.621739 0.501796
vt 0.623821 0.500000
vt 0.619727 0.500000
vt 0.622757 0.500000
s 0
f 25/25/1 38/38/1 3/3/1
f 50/50/2 14/14/2 63/63/2
f 51/51/3 62/62/3 39/39/3 27/27/3
f 15/15/4 49/49/4 26/26/4 2/2/4
f 1/1/5 4/4/5 6/6/5 5/5/5
f 4/4/6 8/8/6 9/9/6 6/6/6
f 2/2/7 7/7/7 9/9/7 8/8/7
f 7/7/8 11/11/8 12/12/8 9/9/8
f 3/3/9 10/10/9 12/12/9 11/11/9
f 10/10/10 5/5/10 6/6/10 12/12/10
f 6/6/11 9/9/11 12/12/11
f 13/13/12 16/16/12 18/18/12 17/17/12
f 16/16/13 20/20/13 21/21/13 18/18/13
f 14/14/14 19/19/14 21/21/14 20/20/14
f 19/19/15 23/23/15 24/24/15 21/21/15
f 15/15/16 22/22/16 24/24/16 23/23/16
f 22/22/17 17/17/17 18/18/17 24/24/17
f 18/18/18 21/21/18 24/24/18
f 25/25/19 28/28/19 30/30/19 29/29/19
f 28/28/20 32/32/20 33/33/20 30/30/20
f 26/26/21 31/31/21 33/33/21 32/32/21
f 31/31/22 35/35/22 36/36/22 33/33/22
f 27/27/23 34/34/23 36/36/23 35/35/23
f 34/34/24 29/29/24 30/30/24 36/36/24
f 30/30/25 33/33/25 36/36/25
f 37/37/26 40/40/26 42/42/26 41/41/26
f 40/40/27 44/44/27 45/45/27 42/42/27
f 38/38/28 43/43/28 45/45/28 44/44/28
f 43/43/29 47/47/29 48/48/29 45/45/29
f 39/39/30 46/46/30 48/48/30 47/47/30
f 46/46/31 41/41/31 42/42/31 48/48/31
f 42/42/32 45/45/32 48/48/32
f 49/49/33 52/52/33 54/54/33 53/53/33
f 52/52/34 56/56/34 57/57/34 54/54/34
f 50/50/35 55/55/35 57/57/35 56/56/35
f 55/55/36 59/59/36 60/60/36 57/57/36
f 51/51/37 58/58/37 60/60/37 59/59/37
f 58/58/38 53/53/38 54/54/38 60/60/38
f 54/54/39 57/57/39 60/60/39
f 61/61/40 64/64/40 66/66/40 65/65/40
f 64/64/41 68/68/41 69/69/41 66/66/41
f 62/62/42 67/67/42 69/69/42 68/68/42
f 67/67/43 71/71/43 72/72/43 69/69/43
f 63/63/44 70/70/44 72/72/44 71/71/44
f 70/70/45 65/65/45 66/66/45 72/72/45
f 66/66/46 69/69/46 72/72/46
f 1/1/47 13/13/47 17/17/47 4/4/47
f 4/4/48 17/17/48 22/22/48 8/8/48
f 8/8/49 22/22/49 15/15/49 2/2/49
f 14/14/50 50/50/50 56/56/50 19/19/50
f 19/19/51 56/56/51 52/52/51 23/23/51
f 23/23/52 52/52/52 49/49/52 15/15/52
f 25/25/53 3/3/53 11/11/53 28/28/53
f 28/28/54 11/11/54 7/7/54 32/32/54
f 32/32/55 7/7/55 2/2/55 26/26/55
f 13/13/56 61/61/56 65/65/56 16/16/56
f 16/16/57 65/65/57 70/70/57 20/20/57
f 20/20/58 70/70/58 63/63/58 14/14/58
f 62/62/59 51/51/59 59/59/59 67/67/59
f 67/67/60 59/59/60 55/55/60 71/71/60
f 71/71/61 55/55/61 50/50/61 63/63/61
f 26/26/62 49/49/62 53/53/62 31/31/62
f 31/31/63 53/53/63 58/58/63 35/35/63
f 35/35/64 58/58/64 51/51/64 27/27/64
f 61/61/65 37/37/65 41/41/65 64/64/65
f 64/64/66 41/41/66 46/46/66 68/68/66
f 68/68/67 46/46/67 39/39/67 62/62/67
f 38/38/68 25/25/68 29/29/68 43/43/68
f 43/43/69 29/29/69 34/34/69 47/47/69
f 47/47/70 34/34/70 27/27/70 39/39/70
f 37/37/71 1/1/71 5/5/71 40/40/71
f 40/40/72 5/5/72 10/10/72 44/44/72
f 44/44/73 10/10/73 3/3/73 38/38/73
f 61/61/74 13/13/74 1/1/74 37/37/74
