# Blender 3.4.1
# www.blender.org
mtllib pillar2.mtl
o Cube
v -0.489965 -2.908520 0.480866
v -0.489965 -2.858520 0.530866
v -0.539965 -2.858520 0.480866
v -0.489965 -2.901840 0.505833
v -0.514932 -2.901840 0.480866
v -0.513875 -2.895352 0.504777
v -0.514932 -2.858520 0.524186
v -0.489965 -2.883487 0.524186
v -0.513875 -2.882431 0.517698
v -0.533285 -2.883487 0.480866
v -0.533285 -2.858520 0.505833
v -0.526796 -2.882431 0.504777
v -0.489965 0.761296 0.530867
v -0.539965 0.761296 0.480867
v -0.514965 0.761296 0.524168
v -0.533266 0.761296 0.505867
v -0.489965 -2.908520 -0.480872
v -0.539965 -2.858520 -0.480872
v -0.489965 -2.858520 -0.530872
v -0.514932 -2.901840 -0.480872
v -0.489965 -2.901840 -0.505839
v -0.513875 -2.895352 -0.504783
v -0.533285 -2.858520 -0.505839
v -0.533285 -2.883487 -0.480872
v -0.526796 -2.882431 -0.504783
v -0.489965 -2.883487 -0.524192
v -0.514932 -2.858520 -0.524192
v -0.513875 -2.882431 -0.517704
v -0.539965 0.761296 -0.480871
v -0.489965 0.761296 -0.530871
v -0.533266 0.761296 -0.505871
v -0.514965 0.761296 -0.524173
v 0.002141 -2.908520 0.480866
v 0.052141 -2.858520 0.480866
v -0.001987 -2.858520 0.530866
v 0.027863 -2.901840 0.480866
v 0.000835 -2.901840 0.505833
v 0.025508 -2.895352 0.504777
v 0.044155 -2.858520 0.505833
v 0.046216 -2.883487 0.480866
v 0.038429 -2.882431 0.504777
v -0.000680 -2.883487 0.524186
v 0.024287 -2.858520 0.524186
v 0.024442 -2.882431 0.517698
v 0.080390 0.802552 0.480867
v -0.002152 0.761296 0.530867
v 0.052141 0.711297 0.480867
v 0.059498 0.783794 0.505398
v 0.066606 0.775099 0.480867
v 0.054161 0.767078 0.504641
v 0.024512 0.744601 0.523439
v 0.029423 0.768791 0.523574
v 0.040354 0.757328 0.517959
v 0.056278 0.741737 0.480867
v 0.044174 0.726472 0.505285
v 0.049169 0.748573 0.504545
v 0.002141 -2.908520 -0.480872
v -0.001987 -2.858520 -0.530872
v 0.052141 -2.858520 -0.480872
v 0.000822 -2.901101 -0.505413
v 0.026682 -2.901101 -0.480872
v 0.025169 -2.895545 -0.504641
v 0.024650 -2.858520 -0.523411
v -0.000667 -2.883061 -0.523454
v 0.024544 -2.882283 -0.517874
v 0.044722 -2.883061 -0.480872
v 0.044159 -2.858520 -0.505345
v 0.038660 -2.882296 -0.504583
v 0.052141 0.711297 -0.480871
v -0.002152 0.761296 -0.530871
v 0.080389 0.802552 -0.480871
v 0.044174 0.726472 -0.505289
v 0.056278 0.741738 -0.480871
v 0.049169 0.748573 -0.504549
v 0.029423 0.768791 -0.523579
v 0.024512 0.744601 -0.523443
v 0.040354 0.757328 -0.517964
v 0.066605 0.775099 -0.480871
v 0.059497 0.783794 -0.505402
v 0.054161 0.767077 -0.504645
v -0.539965 2.352026 0.480867
v -0.489965 2.352026 0.530867
v -0.489965 2.402026 0.480867
v -0.533285 2.352026 0.505834
v -0.533285 2.376993 0.480867
v -0.526796 2.375936 0.504778
v -0.489965 2.376993 0.524187
v -0.514932 2.352026 0.524187
v -0.513875 2.375936 0.517699
v -0.514932 2.395346 0.480867
v -0.489965 2.395346 0.505834
v -0.513875 2.388858 0.504778
v -0.539965 2.352026 -0.480871
v -0.489965 2.402026 -0.480871
v -0.489965 2.352026 -0.530871
v -0.533285 2.376993 -0.480871
v -0.533285 2.352026 -0.505838
v -0.526796 2.375936 -0.504782
v -0.489965 2.395346 -0.505838
v -0.514932 2.395346 -0.480871
v -0.513875 2.388858 -0.504782
v -0.514932 2.352026 -0.524191
v -0.489965 2.376993 -0.524191
v -0.513875 2.375936 -0.517703
v 1.086811 2.352026 -0.530871
v 1.125582 2.402026 -0.480871
v 1.147333 2.360771 -0.480871
v 1.104247 2.375394 -0.524191
v 1.115108 2.354793 -0.524191
v 1.130648 2.377088 -0.517703
v 1.148700 2.398114 -0.480871
v 1.118478 2.393747 -0.505838
v 1.140667 2.390009 -0.504782
v 1.137324 2.358003 -0.505838
v 1.156684 2.382971 -0.480871
v 1.146288 2.379348 -0.504782
v 1.147333 2.360771 0.480867
v 1.125582 2.402026 0.480867
v 1.086811 2.352026 0.530867
v 1.153734 2.381390 0.480867
v 1.133893 2.352999 0.505447
v 1.144507 2.377373 0.504627
v 1.113216 2.394634 0.505370
v 1.146210 2.395658 0.480867
v 1.138404 2.389687 0.504562
v 1.111936 2.349847 0.523540
v 1.099177 2.376528 0.523474
v 1.127378 2.375534 0.517960
vn 0.1246 -0.1269 0.9841
vn 0.1096 -0.0297 0.9935
vn -0.1304 -0.0000 0.9915
vn -0.1296 -0.1296 0.9831
vn 0.1104 -0.0289 -0.9935
vn -0.1304 -0.0000 -0.9915
vn -0.1296 0.1317 -0.9828
vn 0.1232 0.0482 -0.9912
vn 0.8461 -0.5119 0.1486
vn 0.8462 -0.5120 -0.1478
vn 0.8784 -0.4543 -0.1482
vn 0.8851 -0.4388 0.1554
vn -0.9915 -0.0000 -0.1304
vn -0.9915 -0.0000 0.1304
vn -0.9831 0.1296 0.1296
vn -0.9831 0.1296 -0.1296
vn -0.9831 -0.1296 0.1296
vn -0.9831 -0.1296 -0.1296
vn 0.1066 0.9804 -0.1655
vn -0.1296 0.9820 -0.1371
vn -0.1296 0.9825 0.1336
vn 0.1324 0.9780 0.1614
vn 0.1346 0.0525 0.9895
vn -0.1296 0.1336 0.9825
vn -0.1295 -0.1336 -0.9825
vn 0.1262 -0.1310 -0.9833
vn 0.9807 -0.1289 -0.1474
vn 0.9840 -0.0609 -0.1674
vn 0.9842 -0.0609 0.1665
vn 0.9804 -0.1231 0.1539
vn -0.1296 -0.9831 0.1296
vn -0.1216 -0.8623 0.4915
vn -0.4473 -0.7744 0.4474
vn -0.4915 -0.8623 0.1216
vn -0.1216 -0.4915 0.8623
vn -0.4473 -0.4473 0.7744
vn -0.4916 -0.1216 0.8623
vn -0.8623 -0.1216 0.4916
vn -0.7744 -0.4473 0.4474
vn -0.8623 -0.4915 0.1216
vn -0.1295 -0.9825 -0.1336
vn -0.4915 -0.8623 -0.1216
vn -0.4473 -0.7744 -0.4474
vn -0.1208 -0.8603 -0.4952
vn -0.8623 -0.4915 -0.1216
vn -0.7744 -0.4473 -0.4474
vn -0.8623 -0.1216 -0.4916
vn -0.4916 -0.1216 -0.8623
vn -0.4473 -0.4473 -0.7744
vn -0.1208 -0.4952 -0.8604
vn 0.1328 -0.9822 0.1328
vn 0.4950 -0.8587 0.1326
vn 0.4378 -0.7677 0.4679
vn 0.1174 -0.8597 0.4970
vn 0.8638 -0.4833 0.1422
vn 0.7625 -0.4291 0.4842
vn 0.8407 -0.1072 0.5308
vn 0.4699 -0.1122 0.8756
vn 0.4314 -0.4327 0.7916
vn 0.1166 -0.4871 0.8656
vn 0.7403 -0.3779 0.5560
vn 0.7895 -0.2119 0.5759
vn 0.9129 -0.3604 0.1916
vn 0.3784 -0.1480 0.9137
vn 0.5700 -0.1392 0.8098
vn 0.4148 -0.0691 0.9073
vn 0.8156 -0.0945 0.5708
vn 0.8074 -0.2249 0.5455
vn 0.9593 -0.2131 0.1854
vn 0.1334 -0.9818 -0.1354
vn 0.1111 -0.8588 -0.5001
vn 0.4335 -0.7784 -0.4540
vn 0.4949 -0.8606 -0.1206
vn 0.1088 -0.4921 -0.8637
vn 0.4245 -0.4328 -0.7953
vn 0.4743 -0.1085 -0.8736
vn 0.8445 -0.1105 -0.5240
vn 0.7713 -0.4369 -0.4627
vn 0.8618 -0.4919 -0.1238
vn 0.8155 -0.0946 -0.5710
vn 0.8074 -0.2249 -0.5454
vn 0.9593 -0.2131 -0.1854
vn 0.4185 -0.0691 -0.9056
vn 0.5700 -0.1392 -0.8097
vn 0.3750 -0.1457 -0.9155
vn 0.7406 -0.3781 -0.5554
vn 0.7896 -0.2119 -0.5759
vn 0.9129 -0.3604 -0.1916
vn -0.8623 0.1216 0.4916
vn -0.7744 0.4473 0.4474
vn -0.8623 0.4915 0.1216
vn -0.4916 0.1216 0.8623
vn -0.4473 0.4473 0.7744
vn -0.1212 0.4950 0.8604
vn -0.1212 0.8603 0.4951
vn -0.4474 0.7744 0.4474
vn -0.4916 0.8623 0.1216
vn -0.8623 0.4915 -0.1216
vn -0.7744 0.4473 -0.4474
vn -0.8623 0.1216 -0.4916
vn -0.4916 0.8623 -0.1216
vn -0.4473 0.7744 -0.4474
vn -0.1210 0.8586 -0.4982
vn -0.1213 0.4934 -0.8613
vn -0.4473 0.4473 -0.7744
vn -0.4916 0.1216 -0.8623
vn 0.1089 0.4327 -0.8949
vn 0.4338 0.2260 -0.8722
vn 0.4441 -0.1671 -0.8802
vn 0.0840 0.8354 -0.5432
vn 0.4725 0.6569 -0.5876
vn 0.5949 0.7779 -0.2024
vn 0.9787 0.0690 -0.1933
vn 0.8209 0.0269 -0.5704
vn 0.7602 -0.3994 -0.5125
vn 0.9785 0.0757 0.1919
vn 0.8196 0.0286 0.5722
vn 0.7561 -0.3999 0.5180
vn 0.6125 0.7658 0.1960
vn 0.4958 0.6456 0.5808
vn 0.0976 0.8361 0.5398
vn 0.1090 0.4431 0.8898
vn 0.4277 0.2120 0.8787
vn 0.4534 -0.1807 0.8728
vn -0.4999 -0.0000 0.8661
vn -0.8661 -0.0000 0.4999
vn -0.4999 -0.0000 -0.8661
vn -0.8661 -0.0000 -0.4999
vt 0.146111 0.738227
vt 0.378406 0.978889
vt 0.378406 0.011773
vt 0.146111 0.744106
vt 0.135569 0.738227
vt 0.136016 0.743857
vt 0.378406 1.000000
vt 0.378406 0.000000
vt 0.146111 0.750000
vt 0.375000 0.978889
vt 0.375000 0.988984
vt 0.375000 0.000000
vt 0.136016 0.750000
vt 0.125000 0.738227
vt 0.375000 0.011773
vt 0.378406 0.005894
vt 0.375000 0.006143
vt 0.125000 0.743857
vt 0.625000 0.978889
vt 0.625000 0.011773
vt 0.625000 1.000000
vt 0.625000 0.000000
vt 0.625000 0.005887
vt 0.146111 0.511773
vt 0.378406 0.238227
vt 0.378406 0.271111
vt 0.135569 0.511773
vt 0.146111 0.505894
vt 0.136016 0.506143
vt 0.378406 0.244106
vt 0.125000 0.511773
vt 0.375000 0.238227
vt 0.375000 0.243857
vt 0.125000 0.506143
vt 0.146111 0.500000
vt 0.375000 0.271111
vt 0.378406 0.260569
vt 0.375000 0.261016
vt 0.136016 0.500000
vt 0.625000 0.238227
vt 0.625000 0.271111
vt 0.625000 0.244113
vt 0.625000 0.260556
vt 0.353889 0.738227
vt 0.378406 0.738227
vt 0.378406 0.772854
vt 0.364749 0.738227
vt 0.353337 0.744106
vt 0.363755 0.743857
vt 0.378406 0.744106
vt 0.376705 0.738227
vt 0.376777 0.743857
vt 0.369211 0.743857
vt 0.352698 0.750000
vt 0.375000 0.772302
vt 0.378406 0.761761
vt 0.375000 0.761695
vt 0.363305 0.750000
vt 0.625000 0.738227
vt 0.625000 0.772924
vt 0.621594 0.738227
vt 0.625000 0.744003
vt 0.625000 0.738227
vt 0.625000 0.743825
vt 0.623863 0.761666
vt 0.625511 0.759592
vt 0.625000 0.760608
vt 0.624730 0.754977
vt 0.623668 0.738227
vt 0.622628 0.743976
vt 0.624133 0.743802
vt 0.353889 0.511773
vt 0.378406 0.477146
vt 0.378406 0.511773
vt 0.353332 0.505995
vt 0.364251 0.511773
vt 0.363612 0.506176
vt 0.378406 0.488393
vt 0.352703 0.500000
vt 0.375000 0.477703
vt 0.375000 0.488348
vt 0.363348 0.500000
vt 0.376734 0.511773
vt 0.378406 0.506011
vt 0.376786 0.506190
vt 0.369308 0.506190
vt 0.621594 0.511773
vt 0.625000 0.477076
vt 0.625000 0.511773
vt 0.622628 0.506024
vt 0.623668 0.511773
vt 0.624133 0.506198
vt 0.625000 0.489392
vt 0.625000 0.489985
vt 0.623863 0.488334
vt 0.625000 0.495456
vt 0.625000 0.511773
vt 0.625000 0.505997
vt 0.625000 0.506175
vt 0.625000 0.011773
vt 0.625000 0.991421
vt 0.867714 0.738227
vt 0.625000 0.005894
vt 0.625000 0.011773
vt 0.625000 0.006143
vt 0.625000 0.991887
vt 0.625000 1.000000
vt 0.625000 0.000000
vt 0.625000 1.000000
vt 0.625000 0.000000
vt 0.875000 0.738227
vt 0.625000 0.011773
vt 0.867714 0.750000
vt 0.625000 0.992714
vt 0.625000 1.000000
vt 0.875000 0.743857
vt 0.625000 0.006143
vt 0.625000 0.238227
vt 0.867714 0.511773
vt 0.625000 0.258579
vt 0.625000 0.238227
vt 0.625000 0.244106
vt 0.625000 0.243857
vt 0.867714 0.500000
vt 0.625000 0.257286
vt 0.875000 0.511773
vt 0.625000 0.238227
vt 0.875000 0.506143
vt 0.625000 0.250000
vt 0.625000 0.243857
vt 0.625000 0.254481
vt 0.625000 0.258113
vt 0.625000 0.254454
vt 0.625000 0.246899
vt 0.625000 0.491571
vt 0.632286 0.511773
vt 0.625000 0.511773
vt 0.625000 0.491936
vt 0.625000 0.495593
vt 0.625000 0.495708
vt 0.628917 0.511773
vt 0.633322 0.500000
vt 0.625000 0.491678
vt 0.630088 0.500000
vt 0.625000 0.494912
vt 0.625000 0.505894
vt 0.625000 0.511773
vt 0.625000 0.506143
vt 0.625000 0.497850
vt 0.625000 0.738227
vt 0.632286 0.738227
vt 0.625000 0.758429
vt 0.625000 0.738227
vt 0.625000 0.744014
vt 0.625000 0.743821
vt 0.625000 0.752220
vt 0.634088 0.750000
vt 0.625000 0.759088
vt 0.629280 0.738227
vt 0.630418 0.750000
vt 0.625000 0.755418
vt 0.625000 0.754385
vt 0.625000 0.758920
vt 0.625000 0.754630
s 1
f 35/46/1 46/60/2 13/19/3 2/2/4
f 70/88/5 30/41/6 95/120/7 105/135/8
f 45/59/9 71/89/10 107/137/11 117/150/12
f 29/40/13 14/20/14 81/100/15 93/118/16
f 3/3/17 14/20/14 29/40/13 18/25/18
f 106/136/19 94/119/20 83/102/21 118/151/22
f 13/19/3 46/60/2 119/152/23 82/101/24
f 19/26/25 30/41/6 70/88/5 58/73/26
f 59/74/27 69/87/28 47/61/29 34/45/30
f 1/1/31 4/4/32 6/6/33 5/5/34
f 4/4/32 8/9/35 9/13/36 6/6/33
f 2/2/4 7/7/37 9/11/36 8/10/35
f 7/8/37 11/16/38 12/17/39 9/12/36
f 3/3/17 10/15/40 12/17/39 11/16/38
f 10/14/40 5/5/34 6/6/33 12/18/39
f 6/6/33 9/13/36 12/18/39
f 17/24/41 20/27/42 22/29/43 21/28/44
f 20/27/42 24/31/45 25/34/46 22/29/43
f 18/25/18 23/30/47 25/33/46 24/32/45
f 23/30/47 27/37/48 28/38/49 25/33/46
f 19/26/25 26/36/50 28/38/49 27/37/48
f 26/35/50 21/28/44 22/29/43 28/39/49
f 22/29/43 25/34/46 28/39/49
f 33/44/51 36/47/52 38/49/53 37/48/54
f 36/47/52 40/51/55 41/52/56 38/49/53
f 34/45/30 39/50/57 41/52/56 40/51/55
f 39/50/57 43/56/58 44/57/59 41/52/56
f 35/46/1 42/55/60 44/57/59 43/56/58
f 42/54/60 37/48/54 38/49/53 44/58/59
f 38/49/53 41/53/56 44/58/59
f 45/59/9 48/62/61 50/64/62 49/63/63
f 48/62/61 52/66/64 53/68/65 50/64/62
f 46/60/2 51/65/66 53/68/65 52/66/64
f 51/65/66 55/70/67 56/71/68 53/68/65
f 47/61/29 54/69/69 56/71/68 55/70/67
f 54/69/69 49/63/63 50/64/62 56/71/68
f 50/64/62 53/68/65 56/71/68
f 57/72/70 60/75/71 62/77/72 61/76/73
f 60/75/71 64/79/74 65/82/75 62/77/72
f 58/73/26 63/78/76 65/81/75 64/80/74
f 63/78/76 67/84/77 68/85/78 65/81/75
f 59/74/27 66/83/79 68/85/78 67/84/77
f 66/83/79 61/76/73 62/77/72 68/85/78
f 62/77/72 65/82/75 68/86/78
f 69/87/28 72/90/80 74/92/81 73/91/82
f 72/90/80 76/94/83 77/96/84 74/92/81
f 70/88/5 75/93/85 77/96/84 76/94/83
f 75/93/85 79/98/86 80/99/87 77/96/84
f 71/89/10 78/97/88 80/99/87 79/98/86
f 78/97/88 73/91/82 74/92/81 80/99/87
f 74/92/81 77/96/84 80/99/87
f 81/100/15 84/103/89 86/105/90 85/104/91
f 84/103/89 88/108/92 89/110/93 86/105/90
f 82/101/24 87/106/94 89/109/93 88/107/92
f 87/106/94 91/114/95 92/115/96 89/109/93
f 83/102/21 90/111/97 92/116/96 91/113/95
f 90/112/97 85/104/91 86/105/90 92/117/96
f 86/105/90 89/110/93 92/117/96
f 93/118/16 96/121/98 98/123/99 97/122/100
f 96/121/98 100/127/101 101/130/102 98/123/99
f 94/119/20 99/124/103 101/128/102 100/126/101
f 99/125/103 103/132/104 104/133/105 101/129/102
f 95/120/7 102/131/106 104/133/105 103/132/104
f 102/131/106 97/122/100 98/123/99 104/133/105
f 98/123/99 101/130/102 104/134/105
f 105/135/8 108/138/107 110/140/108 109/139/109
f 108/138/107 112/143/110 113/145/111 110/140/108
f 106/136/19 111/141/112 113/144/111 112/142/110
f 111/141/112 115/147/113 116/148/114 113/144/111
f 107/137/11 114/146/115 116/148/114 115/147/113
f 114/146/115 109/139/109 110/140/108 116/148/114
f 110/140/108 113/145/111 116/149/114
f 117/150/12 120/153/116 122/155/117 121/154/118
f 120/153/116 124/159/119 125/160/120 122/155/117
f 118/151/22 123/157/121 125/160/120 124/159/119
f 123/158/121 127/163/122 128/164/123 125/161/120
f 119/152/23 126/162/124 128/164/123 127/163/122
f 126/162/124 121/154/118 122/155/117 128/164/123
f 122/156/117 125/161/120 128/164/123
f 17/24/41 1/1/31 5/5/34 20/27/42
f 20/27/42 5/5/34 10/14/40 24/31/45
f 24/32/45 10/15/40 3/3/17 18/25/18
f 2/2/4 13/19/3 15/21/125 7/7/37
f 7/8/37 15/22/125 16/23/126 11/16/38
f 11/16/38 16/23/126 14/20/14 3/3/17
f 30/41/6 19/26/25 27/37/48 32/43/127
f 32/43/127 27/37/48 23/30/47 31/42/128
f 31/42/128 23/30/47 18/25/18 29/40/13
f 57/72/70 17/24/41 21/28/44 60/75/71
f 60/75/71 21/28/44 26/35/50 64/79/74
f 64/80/74 26/36/50 19/26/25 58/73/26
f 69/87/28 59/74/27 67/84/77 72/90/80
f 72/90/80 67/84/77 63/78/76 76/95/83
f 76/95/83 63/78/76 58/73/26 70/88/5
f 33/44/51 57/72/70 61/76/73 36/47/52
f 36/47/52 61/76/73 66/83/79 40/51/55
f 40/51/55 66/83/79 59/74/27 34/45/30
f 71/89/10 45/59/9 49/63/63 78/97/88
f 78/97/88 49/63/63 54/69/69 73/91/82
f 73/91/82 54/69/69 47/61/29 69/87/28
f 46/60/2 35/46/1 43/56/58 51/65/66
f 51/65/66 43/56/58 39/50/57 55/70/67
f 55/70/67 39/50/57 34/45/30 47/61/29
f 1/1/31 33/44/51 37/48/54 4/4/32
f 4/4/32 37/48/54 42/54/60 8/9/35
f 8/10/35 42/55/60 35/46/1 2/2/4
f 83/102/21 94/119/20 100/126/101 90/111/97
f 90/112/97 100/127/101 96/121/98 85/104/91
f 85/104/91 96/121/98 93/118/16 81/100/15
f 94/119/20 106/136/19 112/142/110 99/124/103
f 99/125/103 112/143/110 108/138/107 103/132/104
f 103/132/104 108/138/107 105/135/8 95/120/7
f 106/136/19 118/151/22 124/159/119 111/141/112
f 111/141/112 124/159/119 120/153/116 115/147/113
f 115/147/113 120/153/116 117/150/12 107/137/11
f 118/151/22 83/102/21 91/113/95 123/157/121
f 123/158/121 91/114/95 87/106/94 127/163/122
f 127/163/122 87/106/94 82/101/24 119/152/23
f 70/88/5 105/135/8 109/139/109 75/93/85
f 75/93/85 109/139/109 114/146/115 79/98/86
f 79/98/86 114/146/115 107/137/11 71/89/10
f 119/152/23 46/60/2 52/67/64 126/162/124
f 126/162/124 52/67/64 48/62/61 121/154/118
f 121/154/118 48/62/61 45/59/9 117/150/12
f 13/19/3 82/101/24 88/107/92 15/21/125
f 15/22/125 88/108/92 84/103/89 16/23/126
f 16/23/126 84/103/89 81/100/15 14/20/14
f 95/120/7 30/41/6 32/43/127 102/131/106
f 102/131/106 32/43/127 31/42/128 97/122/100
f 97/122/100 31/42/128 29/40/13 93/118/16
f 17/24/41 57/72/70 33/44/51 1/1/31
