# Blender 3.4.1
# www.blender.org
mtllib pillar1.mtl
o Cube
v -0.246053 -2.648404 0.480869
v -0.246053 -2.598404 0.530869
v -0.296053 -2.598404 0.480869
v -0.246053 -2.641725 0.505836
v -0.271020 -2.641725 0.480869
v -0.269963 -2.635236 0.504780
v -0.271020 -2.598404 0.524189
v -0.246053 -2.623372 0.524189
v -0.269963 -2.622315 0.517701
v -0.289373 -2.623372 0.480869
v -0.289373 -2.598404 0.505836
v -0.282884 -2.622315 0.504780
v -0.246053 2.598404 0.530869
v -0.246053 2.648404 0.480869
v -0.296053 2.598404 0.480869
v -0.246053 2.623372 0.524189
v -0.271020 2.598404 0.524189
v -0.269963 2.622315 0.517701
v -0.271020 2.641725 0.480869
v -0.246053 2.641725 0.505836
v -0.269963 2.635236 0.504780
v -0.289373 2.598404 0.505836
v -0.289373 2.623372 0.480869
v -0.282884 2.622315 0.504780
v -0.246053 -2.648404 -0.480869
v -0.296053 -2.598404 -0.480869
v -0.246053 -2.598404 -0.530869
v -0.271020 -2.641725 -0.480869
v -0.246053 -2.641725 -0.505836
v -0.269963 -2.635236 -0.504780
v -0.289373 -2.598404 -0.505836
v -0.289373 -2.623372 -0.480869
v -0.282884 -2.622315 -0.504780
v -0.246053 -2.623372 -0.524189
v -0.271020 -2.598404 -0.524189
v -0.269963 -2.622315 -0.517701
v -0.246053 2.648404 -0.480869
v -0.246053 2.598404 -0.530869
v -0.296053 2.598404 -0.480869
v -0.246053 2.641725 -0.505836
v -0.271020 2.641725 -0.480869
v -0.269963 2.635236 -0.504780
v -0.271020 2.598404 -0.524189
v -0.246053 2.623372 -0.524189
v -0.269963 2.622315 -0.517701
v -0.289373 2.623372 -0.480869
v -0.289373 2.598404 -0.505836
v -0.282884 2.622315 -0.504780
v 0.246053 -2.648404 0.480869
v 0.296053 -2.598404 0.480869
v 0.246053 -2.598404 0.530869
v 0.271020 -2.641725 0.480869
v 0.246053 -2.641725 0.505836
v 0.269963 -2.635236 0.504780
v 0.289373 -2.598404 0.505836
v 0.289373 -2.623372 0.480869
v 0.282884 -2.622315 0.504780
v 0.246053 -2.623372 0.524189
v 0.271020 -2.598404 0.524189
v 0.269963 -2.622315 0.517701
v 0.246053 2.648404 0.480869
v 0.246053 2.598404 0.530869
v 0.296053 2.598404 0.480869
v 0.246053 2.641725 0.505836
v 0.271020 2.641725 0.480869
v 0.269963 2.635236 0.504780
v 0.271020 2.598404 0.524189
v 0.246053 2.623372 0.524189
v 0.269963 2.622315 0.517701
v 0.289373 2.623372 0.480869
v 0.289373 2.598404 0.505836
v 0.282884 2.622315 0.504780
v 0.246053 -2.648404 -0.480869
v 0.246053 -2.598404 -0.530869
v 0.296053 -2.598404 -0.480869
v 0.246053 -2.641725 -0.505836
v 0.271020 -2.641725 -0.480869
v 0.269963 -2.635236 -0.504780
v 0.271020 -2.598404 -0.524189
v 0.246053 -2.623372 -0.524189
v 0.269963 -2.622315 -0.517701
v 0.289373 -2.623372 -0.480869
v 0.289373 -2.598404 -0.505836
v 0.282884 -2.622315 -0.504780
v 0.246053 2.648404 -0.480869
v 0.296053 2.598404 -0.480869
v 0.246053 2.598404 -0.530869
v 0.271020 2.641725 -0.480869
v 0.246053 2.641725 -0.505836
v 0.269963 2.635236 -0.504780
v 0.289373 2.598404 -0.505836
v 0.289373 2.623372 -0.480869
v 0.282884 2.622315 -0.504780
v 0.246053 2.623372 -0.524189
v 0.271020 2.598404 -0.524189
v 0.269963 2.622315 -0.517701
vn 0.1296 -0.1296 0.9831
vn 0.1296 0.1296 0.9831
vn -0.1296 0.1296 0.9831
vn -0.1296 -0.1296 0.9831
vn 0.9831 -0.1296 -0.1296
vn 0.9831 0.1296 -0.1296
vn 0.9831 0.1296 0.1296
vn 0.9831 -0.1296 0.1296
vn 0.1296 0.9831 -0.1296
vn -0.1296 0.9831 -0.1296
vn -0.1296 0.9831 0.1296
vn 0.1296 0.9831 0.1296
vn -0.9831 -0.1296 0.1296
vn -0.9831 0.1296 0.1296
vn -0.9831 0.1296 -0.1296
vn -0.9831 -0.1296 -0.1296
vn -0.1296 -0.1296 -0.9831
vn -0.1296 0.1296 -0.9831
vn 0.1296 0.1296 -0.9831
vn 0.1296 -0.1296 -0.9831
vn -0.1296 -0.9831 0.1296
vn -0.1216 -0.8623 0.4915
vn -0.4473 -0.7744 0.4473
vn -0.4915 -0.8623 0.1216
vn -0.1216 -0.4915 0.8623
vn -0.4473 -0.4473 0.7744
vn -0.4915 -0.1216 0.8623
vn -0.8623 -0.1216 0.4915
vn -0.7744 -0.4473 0.4473
vn -0.8623 -0.4915 0.1216
vn -0.1216 0.4915 0.8623
vn -0.4473 0.4473 0.7744
vn -0.4915 0.1216 0.8623
vn -0.1216 0.8623 0.4915
vn -0.4473 0.7744 0.4473
vn -0.4915 0.8623 0.1216
vn -0.8623 0.4915 0.1216
vn -0.7744 0.4473 0.4473
vn -0.8623 0.1216 0.4915
vn -0.1296 -0.9831 -0.1296
vn -0.4915 -0.8623 -0.1216
vn -0.4473 -0.7744 -0.4473
vn -0.1216 -0.8623 -0.4915
vn -0.8623 -0.4915 -0.1216
vn -0.7744 -0.4473 -0.4473
vn -0.8623 -0.1216 -0.4915
vn -0.4915 -0.1216 -0.8623
vn -0.4473 -0.4473 -0.7744
vn -0.1216 -0.4915 -0.8623
vn -0.1216 0.8623 -0.4915
vn -0.4473 0.7744 -0.4473
vn -0.4915 0.8623 -0.1216
vn -0.1216 0.4915 -0.8623
vn -0.4473 0.4473 -0.7744
vn -0.4915 0.1216 -0.8623
vn -0.8623 0.1216 -0.4915
vn -0.7744 0.4473 -0.4473
vn -0.8623 0.4915 -0.1216
vn 0.1296 -0.9831 0.1296
vn 0.4915 -0.8623 0.1216
vn 0.4473 -0.7744 0.4473
vn 0.1216 -0.8623 0.4915
vn 0.8623 -0.4915 0.1216
vn 0.7744 -0.4473 0.4473
vn 0.8623 -0.1216 0.4915
vn 0.4915 -0.1216 0.8623
vn 0.4473 -0.4473 0.7744
vn 0.1216 -0.4915 0.8623
vn 0.1216 0.8623 0.4915
vn 0.4473 0.7744 0.4473
vn 0.4915 0.8623 0.1216
vn 0.1216 0.4915 0.8623
vn 0.4473 0.4473 0.7744
vn 0.4915 0.1216 0.8623
vn 0.8623 0.1216 0.4915
vn 0.7744 0.4473 0.4473
vn 0.8623 0.4915 0.1216
vn 0.1296 -0.9831 -0.1296
vn 0.1216 -0.8623 -0.4915
vn 0.4473 -0.7744 -0.4473
vn 0.4915 -0.8623 -0.1216
vn 0.1216 -0.4915 -0.8623
vn 0.4473 -0.4473 -0.7744
vn 0.4915 -0.1216 -0.8623
vn 0.8623 -0.1216 -0.4915
vn 0.7744 -0.4473 -0.4473
vn 0.8623 -0.4915 -0.1216
vn 0.4915 0.8623 -0.1216
vn 0.4473 0.7744 -0.4473
vn 0.1216 0.8623 -0.4915
vn 0.8623 0.4915 -0.1216
vn 0.7744 0.4473 -0.4473
vn 0.8623 0.1216 -0.4915
vn 0.4915 0.1216 -0.8623
vn 0.4473 0.4473 -0.7744
vn 0.1216 0.4915 -0.8623
vt 0.146111 0.738227
vt 0.377360 0.978889
vt 0.377360 0.011773
vt 0.146111 0.744106
vt 0.135569 0.738227
vt 0.136016 0.743857
vt 0.377360 1.000000
vt 0.377360 0.000000
vt 0.146111 0.750000
vt 0.375000 0.978889
vt 0.375000 0.988984
vt 0.375000 0.000000
vt 0.136016 0.750000
vt 0.125000 0.738227
vt 0.375000 0.011773
vt 0.377360 0.005894
vt 0.375000 0.006143
vt 0.125000 0.743857
vt 0.622640 0.978889
vt 0.853889 0.738227
vt 0.622640 0.011773
vt 0.623819 0.978889
vt 0.622640 1.000000
vt 0.622640 0.000000
vt 0.623769 1.000000
vt 0.623769 0.000000
vt 0.875000 0.738227
vt 0.625000 0.011773
vt 0.853889 0.750000
vt 0.625000 0.978889
vt 0.625000 1.000000
vt 0.875000 0.743857
vt 0.625000 0.006143
vt 0.622640 0.005894
vt 0.623818 0.011773
vt 0.623769 0.006143
vt 0.146111 0.511773
vt 0.377360 0.238227
vt 0.377360 0.271111
vt 0.135569 0.511773
vt 0.146111 0.505894
vt 0.136016 0.506143
vt 0.377360 0.244106
vt 0.125000 0.511773
vt 0.375000 0.238227
vt 0.375000 0.243857
vt 0.125000 0.506143
vt 0.146111 0.500000
vt 0.375000 0.271111
vt 0.377360 0.260569
vt 0.375000 0.261016
vt 0.136016 0.500000
vt 0.853889 0.511773
vt 0.622640 0.271111
vt 0.622640 0.238227
vt 0.853889 0.500000
vt 0.625000 0.271111
vt 0.875000 0.511773
vt 0.625000 0.238227
vt 0.875000 0.506143
vt 0.625000 0.250000
vt 0.625000 0.243857
vt 0.622640 0.260569
vt 0.623819 0.271111
vt 0.623769 0.261016
vt 0.623769 0.246899
vt 0.623819 0.238227
vt 0.622640 0.244106
vt 0.623769 0.243857
vt 0.353889 0.738227
vt 0.377360 0.738227
vt 0.377360 0.771111
vt 0.364431 0.738227
vt 0.353889 0.744106
vt 0.363984 0.743857
vt 0.377360 0.744106
vt 0.376182 0.738227
vt 0.376231 0.743857
vt 0.369440 0.743857
vt 0.353889 0.750000
vt 0.375000 0.771111
vt 0.377360 0.760569
vt 0.375000 0.761016
vt 0.363984 0.750000
vt 0.646111 0.738227
vt 0.622640 0.771111
vt 0.622640 0.738227
vt 0.646111 0.750000
vt 0.625000 0.771111
vt 0.635569 0.738227
vt 0.636016 0.750000
vt 0.625000 0.761016
vt 0.622640 0.760569
vt 0.623819 0.771111
vt 0.623769 0.761015
vt 0.623819 0.738227
vt 0.622640 0.744106
vt 0.623769 0.743857
vt 0.623769 0.755560
vt 0.353889 0.511773
vt 0.377360 0.478889
vt 0.377360 0.511773
vt 0.353889 0.505894
vt 0.364431 0.511773
vt 0.363984 0.506143
vt 0.377360 0.489431
vt 0.353889 0.500000
vt 0.375000 0.478889
vt 0.375000 0.488984
vt 0.363984 0.500000
vt 0.376182 0.511773
vt 0.377360 0.505894
vt 0.376231 0.506143
vt 0.369440 0.506143
vt 0.646111 0.511773
vt 0.622640 0.511773
vt 0.622640 0.478889
vt 0.635569 0.511773
vt 0.646111 0.500000
vt 0.625000 0.478889
vt 0.636016 0.500000
vt 0.625000 0.488984
vt 0.622640 0.505894
vt 0.623818 0.511773
vt 0.623769 0.506143
vt 0.623769 0.494440
vt 0.623819 0.478889
vt 0.622640 0.489431
vt 0.623769 0.488984
s 1
f 51/72/1 62/86/2 13/19/3 2/2/4
f 75/102/5 86/116/6 63/87/7 50/71/8
f 85/115/9 37/53/10 14/20/11 61/85/12
f 3/3/13 15/21/14 39/55/15 26/38/16
f 27/39/17 38/54/18 87/117/19 74/101/20
f 1/1/21 4/4/22 6/6/23 5/5/24
f 4/4/22 8/9/25 9/13/26 6/6/23
f 2/2/4 7/7/27 9/11/26 8/10/25
f 7/8/27 11/16/28 12/17/29 9/12/26
f 3/3/13 10/15/30 12/17/29 11/16/28
f 10/14/30 5/5/24 6/6/23 12/18/29
f 6/6/23 9/13/26 12/18/29
f 13/19/3 16/22/31 18/25/32 17/23/33
f 16/22/31 20/30/34 21/31/35 18/25/32
f 14/20/11 19/27/36 21/32/35 20/29/34
f 19/28/36 23/35/37 24/36/38 21/33/35
f 15/21/14 22/34/39 24/36/38 23/35/37
f 22/34/39 17/24/33 18/26/32 24/36/38
f 18/26/32 21/33/35 24/36/38
f 25/37/40 28/40/41 30/42/42 29/41/43
f 28/40/41 32/44/44 33/47/45 30/42/42
f 26/38/16 31/43/46 33/46/45 32/45/44
f 31/43/46 35/50/47 36/51/48 33/46/45
f 27/39/17 34/49/49 36/51/48 35/50/47
f 34/48/49 29/41/43 30/42/42 36/52/48
f 30/42/42 33/47/45 36/52/48
f 37/53/10 40/56/50 42/60/51 41/58/52
f 40/57/50 44/64/53 45/65/54 42/61/51
f 38/54/18 43/63/55 45/65/54 44/64/53
f 43/63/55 47/68/56 48/69/57 45/65/54
f 39/55/15 46/67/58 48/69/57 47/68/56
f 46/67/58 41/59/52 42/62/51 48/69/57
f 42/62/51 45/66/54 48/69/57
f 49/70/59 52/73/60 54/75/61 53/74/62
f 52/73/60 56/77/63 57/78/64 54/75/61
f 50/71/8 55/76/65 57/78/64 56/77/63
f 55/76/65 59/82/66 60/83/67 57/78/64
f 51/72/1 58/81/68 60/83/67 59/82/66
f 58/80/68 53/74/62 54/75/61 60/84/67
f 54/75/61 57/79/64 60/84/67
f 61/85/12 64/88/69 66/91/70 65/90/71
f 64/89/69 68/94/72 69/95/73 66/92/70
f 62/86/2 67/93/74 69/95/73 68/94/72
f 67/93/74 71/97/75 72/98/76 69/95/73
f 63/87/7 70/96/77 72/98/76 71/97/75
f 70/96/77 65/90/71 66/91/70 72/98/76
f 66/92/70 69/95/73 72/99/76
f 73/100/78 76/103/79 78/105/80 77/104/81
f 76/103/79 80/107/82 81/110/83 78/105/80
f 74/101/20 79/106/84 81/109/83 80/108/82
f 79/106/84 83/112/85 84/113/86 81/109/83
f 75/102/5 82/111/87 84/113/86 83/112/85
f 82/111/87 77/104/81 78/105/80 84/113/86
f 78/105/80 81/110/83 84/114/86
f 85/115/9 88/118/88 90/121/89 89/119/90
f 88/118/88 92/124/91 93/125/92 90/121/89
f 86/116/6 91/123/93 93/125/92 92/124/91
f 91/123/93 95/128/94 96/129/95 93/125/92
f 87/117/19 94/127/96 96/129/95 95/128/94
f 94/127/96 89/120/90 90/122/89 96/129/95
f 90/122/89 93/126/92 96/129/95
f 25/37/40 1/1/21 5/5/24 28/40/41
f 28/40/41 5/5/24 10/14/30 32/44/44
f 32/45/44 10/15/30 3/3/13 26/38/16
f 2/2/4 13/19/3 17/23/33 7/7/27
f 7/8/27 17/24/33 22/34/39 11/16/28
f 11/16/28 22/34/39 15/21/14 3/3/13
f 14/20/11 37/53/10 41/58/52 19/27/36
f 19/28/36 41/59/52 46/67/58 23/35/37
f 23/35/37 46/67/58 39/55/15 15/21/14
f 38/54/18 27/39/17 35/50/47 43/63/55
f 43/63/55 35/50/47 31/43/46 47/68/56
f 47/68/56 31/43/46 26/38/16 39/55/15
f 73/100/78 25/37/40 29/41/43 76/103/79
f 76/103/79 29/41/43 34/48/49 80/107/82
f 80/108/82 34/49/49 27/39/17 74/101/20
f 37/53/10 85/115/9 89/119/90 40/56/50
f 40/57/50 89/120/90 94/127/96 44/64/53
f 44/64/53 94/127/96 87/117/19 38/54/18
f 86/116/6 75/102/5 83/112/85 91/123/93
f 91/123/93 83/112/85 79/106/84 95/128/94
f 95/128/94 79/106/84 74/101/20 87/117/19
f 49/70/59 73/100/78 77/104/81 52/73/60
f 52/73/60 77/104/81 82/111/87 56/77/63
f 56/77/63 82/111/87 75/102/5 50/71/8
f 85/115/9 61/85/12 65/90/71 88/118/88
f 88/118/88 65/90/71 70/96/77 92/124/91
f 92/124/91 70/96/77 63/87/7 86/116/6
f 62/86/2 51/72/1 59/82/66 67/93/74
f 67/93/74 59/82/66 55/76/65 71/97/75
f 71/97/75 55/76/65 50/71/8 63/87/7
f 1/1/21 49/70/59 53/74/62 4/4/22
f 4/4/22 53/74/62 58/80/68 8/9/25
f 8/10/25 58/81/68 51/72/1 2/2/4
f 61/85/12 14/20/11 20/29/34 64/88/69
f 64/89/69 20/30/34 16/22/31 68/94/72
f 68/94/72 16/22/31 13/19/3 62/86/2
f 25/37/40 73/100/78 49/70/59 1/1/21
